<?xml version="1.0" encoding="iso-8859-1"?>
<!-- Generator: Adobe Illustrator 19.1.1, SVG Export Plug-In . SVG Version: 6.00 Build 0)  -->
<svg version="1.1" id="Layer_1" xmlns="http://www.w3.org/2000/svg" xmlns:xlink="http://www.w3.org/1999/xlink" x="0px" y="0px"
	 viewBox="0 0 800 120" style="enable-background:new 0 0 800 120;" xml:space="preserve">
<g>
	<rect x="13.9" y="22.9" style="fill:none;" width="790.7" height="90.6"/>
	<path style="fill:#FFFFFF;stroke:#000000;stroke-width:0.75;stroke-miterlimit:10;" d="M99,50.5c0,2.2-0.1,4-0.2,5.1
		c-0.4,0.9-0.8,2.3-1.2,4.2c-0.1,1.9-0.5,3.9-1.3,6c-0.6,0.8-1.5,2.1-2.7,3.8c-0.4,1.2-1.2,2.9-2.6,5.1c-1.1,1.2-2.9,2.9-5.2,5.3
		c-0.3,0.1-0.8,0.3-1.4,0.6c-0.5,0.5-1.4,1.2-2.7,2.1c-6.4,3.4-12.6,5.4-18.4,5.9h-7.8c0.1,0-0.1-0.1-0.5-0.4
		c-4.2-0.1-7.4-0.7-9.6-1.8c-0.5-0.1-1.2-0.3-2.2-0.6c-1.6-0.6-4-1.7-7.1-3.3c-3.8-2.4-7.3-5.8-10.6-10.2c-1.8-2.5-3.5-5.6-4.9-9.4
		c-1.3-3.6-2.1-6.6-2.2-9c-0.3-4.2-0.1-8.3,0.5-12.3c0.2-0.5,0.6-1.3,1-2.2c0.2-1.2,0.7-2.8,1.3-5.1c0.8-1.4,2-3.4,3.4-6
		c0.2-0.5,0.3-1,0.3-1.5c0.2-0.2,0.6-0.1,1.2,0.2c0.2-0.5,0.2-1.3,0-2.4c0.5-0.2,1.3-0.5,2.2-1c0.3-0.8,1-1.8,2.2-3
		c2.3-1.2,5.9-3.1,10.7-5.5c1.2-0.6,2.8-1.1,4.7-1.6c4.8-1.1,8.1-1.6,9.8-1.6h4.6c3.6,0,6.6,0.3,9.2,1c1.4,0.4,4.4,1.5,9.1,3.3
		c1,0.6,2.6,1.6,4.7,3c3.1,1.9,5.8,4.6,8.4,8.1c2.2,3.1,3.7,5.9,4.4,8.4c0.3,0.4,0.7,1.1,1.2,2c0.8,2.4,1.3,5.8,1.5,10.4
		c0,0.2,0.1,0.5,0.3,1.1C98.9,49.7,99,50.2,99,50.5z M86,52.1c-0.4-5-1.4-9.5-2.9-13.6c-2-5.3-4.4-9.4-7.1-12.4
		c-3.8-4.2-8.1-6.7-12.6-7.5c-4.3-0.7-7.3-1-8.9-0.8c-3.1,0.4-5.8,1.1-8,2.1C46.1,20,44.3,21,41,23c-0.2,0.4-0.6,0.9-1.1,1.4
		c-0.3,0.1-0.7,0.2-1,0.4c-0.8,1-1.8,2.4-2.9,4.2c-0.2,0.5-0.5,1.2-0.8,2c-0.6,0.9-1.2,2.1-1.9,3.4c-0.4,1.5-0.9,3.6-1.6,6.5
		c0,1.1,0,2.8-0.1,5c0,0.1-0.1,0.4-0.2,0.8c-0.2,0.4-0.2,0.7-0.2,0.8c0.6,2.6,1.4,6.2,2.4,10.7c-0.1,0.3-0.1,0.7-0.2,1.1
		c0.3,0.5,0.7,1.3,1.2,2.3c0,0.5,0.2,1.2,0.4,2c1.7,3.3,2.5,5,2.5,5.1c1.2,2,2.8,4,4.9,5.8c0,0,0.3,0.8,0.7,2.5c0.2,0,0.9,0.1,2,0.3
		c1.9,1.8,3.4,3,4.4,3.6c1.4,0.8,4,1.3,7.7,1.6c3,0.2,5.7,0.2,8.1,0c0.6-0.2,1.4-0.4,2.5-0.7c1.3-0.3,3.2-1,5.6-2
		c0.6-0.5,1.3-1.1,2.2-1.9c1.5-0.9,3-2.3,4.4-4.1c1.4-1.8,2.3-3.4,2.6-4.9c0.4-0.5,0.9-1.1,1.4-2c0.1-0.8,0.2-1.6,0.4-2.7
		c0.2-0.2,0.5-0.6,0.7-1.1c0.1-0.9,0.3-2.8,0.6-5.9C85.9,54.6,86,53,86,52.1z"/>
	<path style="fill:#FFFFFF;stroke:#000000;stroke-width:0.75;stroke-miterlimit:10;" d="M154.8,79.5c-0.2,0.3-0.6,0.7-1.2,1.2
		c-1.4,0.8-2.3,1.1-3,1.1h-5.4c-1.8,0-3.2-0.1-4.1-0.2c-0.7-0.2-1.7-0.6-3-1c-1.2-0.4-3.2-2.2-6-5.4c-0.2-0.3-1.4-2.2-3.5-5.9
		c-1.9-3.3-3.4-6.1-4.5-8.3c-0.3-0.8-0.8-1.9-1.5-3.3c-0.3-0.3-1.1-0.5-2.3-0.4c-0.8,0.1-1.5,0.2-2.3,0.3c-1-0.1-2.5-0.1-4.5,0
		c-0.2,0-0.5,0.2-0.8,0.5c0.1,1.2,0.3,4.9,0.5,11.1c0,1.2,0.3,2.8,0.7,4.8c0,0.5,0.2,1.3,0.5,2.4c0.6,1.1,1.7,1.9,3.1,2.4
		c1.2,0.3,2.3,0.7,3.5,1c0,0.3,0,0.7-0.1,1.2c-0.9,0.4-1.8,0.5-2.7,0.5h-4.8c-0.1,0-0.5-0.1-1.2-0.2c-0.8-0.2-1.3-0.2-1.6-0.2
		c-0.9,0-3.4,0.2-7.4,0.5h-4.6c-0.5,0-1-0.1-1.6-0.4c0-0.1,0-0.3-0.1-0.5s-0.1-0.5-0.1-0.6c1.6-0.4,2.5-0.7,2.9-0.9
		c1.1-0.5,2-1.4,2.7-2.6c0.3-0.5,0.5-1.9,0.6-4.2c0-0.4,0.1-1.3,0.3-2.8c0.2-1.4,0.3-2.5,0.3-3.2c0-4.1,0-6.3,0.1-6.7
		c0.1-0.3,0.4-0.9,0.8-1.6c-0.2-0.2-0.5-0.6-0.8-1.2c-0.2-0.5-0.2-1.3-0.2-2.3v-4.6c0,0,0-0.5-0.1-1.4c0,0.4,0.2-1.6,0.4-6
		c0-0.1-0.1-0.2-0.2-0.3c-0.3-1.2-0.3-2.7,0-4.7c0.1-0.5-0.1-2.4-0.6-5.4c0-1-0.3-2.2-0.8-3.8c-0.7-0.8-1.5-1.3-2.6-1.5
		c-0.9-0.2-1.8-0.4-2.7-0.6c0-1.7,0-2.1-0.1-1.1c0.1-0.5,0.4-0.7,0.9-0.8c1.2-0.1,3.2-0.2,5.9-0.4c2.5-0.2,3.8-0.4,3.9-0.4h5.9
		c1.1,0,2.2-0.1,3.4-0.3c1.2-0.2,2.1-0.3,3-0.3c1,0,2.3,0.1,3.9,0.3c1,0.2,2.4,0.5,4.3,0.9c0.2,0.1,0.5,0.3,0.9,0.4
		c2.9,0.5,5.5,1.8,7.7,4.1c1.2,1.3,2.3,3.6,3.3,6.9c0,0.5,0.1,1.2,0.1,2.1c0.1,0.8,0,1.9-0.2,3.4c-0.4,3.2-1.2,5.6-2.3,7.3
		c-1,1.5-3,3.6-5.9,6.4c0,0.6,0.1,1.2,0.4,1.7c1.9,3.7,3.8,7.3,5.7,11c2.3,4,5,7.3,8.3,10.1c0.3,0.2,1.4,0.6,3.4,1.2
		c1.2,0.3,2.2,0.4,3,0.2c1.2-0.2,2.1-0.3,2.6-0.3C154.7,78.8,154.8,79.1,154.8,79.5z M129.9,40.7c0-1-0.1-1.7-0.2-2
		c-1.5-4-2.8-6.6-3.9-7.7c-1.5-1.6-3.1-2.6-4.9-3c-1.2-0.3-3.1-0.3-5.7-0.2c-0.3,0-0.7,0.2-1.3,0.5c-0.5,5.2-0.8,9.4-0.9,12.6
		c0.2,0.2,0.3,0.6,0.5,1c0,0.4-0.1,2.1-0.4,5.2c-0.2,2-0.1,4,0.1,6c0.1,0.1,0.2,0.2,0.4,0.4h4.5c0.5,0.1,1.1,0.2,1.6,0.2
		c1.8,0,3.5-0.6,5.2-1.7c1.6-1.1,2.7-2.1,3-2.8C129.2,46.7,129.9,43.8,129.9,40.7z"/>
	<path style="fill:#FFFFFF;stroke:#000000;stroke-width:0.75;stroke-miterlimit:10;" d="M188,66.3c0,0.7-0.4,2-1.1,3.9
		c-0.7,2-1.2,3.2-1.6,3.6c-1.4,1.7-2.9,3.2-4.5,4.5c-0.9,0.7-2,1.3-3.5,1.7c-3.7,1.2-7.1,1.7-10.4,1.7c0.1,0-0.5,0-1.7-0.1
		c-1.1-0.1-1.9-0.1-2.4-0.1c0.1,0.3,0.1-0.3,0.1-1.6c-0.8-0.7-1.8-1.1-3-1.1c-0.5,0-0.9,0.2-1.3,0.6c0.1,0.1,0.5,0.3,1.4,0.6
		c-0.2,0.5-0.5,0.8-1.1,0.8c-0.6,0-1.9-0.2-3.9-0.7c-2.6-0.6-4.5-1.4-5.7-2.2c-0.3-0.2-0.6-1.4-0.9-3.6c-0.2-1.8-0.4-4-0.4-6.6
		c0-2.4,0.1-4.3,0.4-5.8c0.2,0,0.6,0,1.5-0.2c0.2,0.3,0.3,0.9,0.3,1.7c0,1.1,0,1.6,0,1.6c0.2,0.7,0.4,1.8,0.7,3.2
		c0,0.2,0.4,0.9,1.2,2c0.5,0.7,1.3,1.7,2.5,3c1,0.8,2.3,1.4,4,1.8c0.9,0.3,1.8,0.6,2.7,0.9c1.2,0.3,2.1,0.5,2.9,0.5
		c0.3,0.2,0.5,0.3,0.7,0.3c0.1,0,0.3,0,0.5-0.1c0.2-0.1,0.4-0.1,0.5-0.1c0.2,0,0.7,0.1,1.7,0.3c1,0.2,1.6,0.3,1.7,0.3
		c0.1,0,0.4-0.2,0.9-0.5c0.5-0.3,0.8-0.6,1.1-0.6c0.8-0.2,2.1-0.4,3.7-0.8c0.8-0.2,1.5-1,2-2.5c0.2-0.4,0.5-1,0.9-1.7
		c0-0.2,0-0.5,0.1-1c0.1-0.2,0.2-0.6,0.5-1.1c0.3-0.5,0.5-0.9,0.5-1c0-1.1-0.1-2.1-0.4-2.9c-0.2-0.5-0.8-1.6-1.9-3.2
		c-0.3-0.2-0.8-0.6-1.5-1c-2.6-2.1-5.2-3.6-7.6-4.4c-0.7-0.4-1.6-0.9-2.9-1.6c-1.5-0.6-4-2-7.3-4.1c-0.2-0.1-0.6-0.2-1-0.5
		c-0.9-0.8-1.8-1.7-2.8-3c-1.4-1.8-2.1-2.7-2.3-2.8c0-0.4,0-1.1-0.1-1.9c-0.2-0.3-0.4-0.8-0.8-1.5c0-0.6,0-1.5-0.1-2.6
		c0.2-0.2,0.3-0.5,0.3-0.6c-0.3-0.8-0.5-1.2-0.5-1.1c0,0.1,0.3-0.7,1-2.1c0.1-0.7,0.3-1.6,0.6-2.7c0.1-0.3,0.9-1.1,2.4-2.6
		c0.7,0.3,1,0.5,1,0.5c0.1-0.4,0.3-0.9,0.5-1.5c2.8-2.7,5.3-4.3,7.7-4.9c1.9-0.5,4.5-0.7,7.7-0.7c0.2,0,1.7,0.2,4.6,0.5
		c2.9,0.3,4.4,0.5,4.6,0.5c0.1,0,0.8-0.1,2-0.3c1.2-0.2,1.9-0.2,2.1-0.2c0.8,0,1.3,0.4,1.3,1.1l-0.7,7.5v4c0,0.1,0,0.6-0.1,1.6
		c-0.1,1-0.1,1.7-0.1,2.2c0,0-0.1,0.1-0.3,0.2c-0.2,0.1-0.3,0.2-0.5,0.2h-1c-0.1-1-0.3-2.3-0.6-4.1c-0.9-3.6-2.9-5.9-5.9-6.9
		c-1.5-0.5-4.3-0.8-8.1-0.8c-0.7,0-2,0.3-3.7,0.9c-1.5,0.5-3,1.8-4.3,4c-0.5,0.8-0.7,1.6-0.7,2.5c0,1.4,0.5,3.1,1.4,5.1
		c0.4,0.4,0.9,0.9,1.6,1.5c2.1,2.1,5.2,4,9.3,5.7c6.5,2.7,11,5.6,13.6,8.8c0.9,1.2,1.6,2.6,1.9,4.1C187.8,62.5,188,64.4,188,66.3z"
		/>
	<path style="fill:#FFFFFF;stroke:#000000;stroke-width:0.75;stroke-miterlimit:10;" d="M252.4,52.2c0,1.7,0,3-0.1,4
		c-0.3,0.7-0.6,1.8-1,3.2c-0.1,1.5-0.4,3-1,4.6c-0.5,0.6-1.2,1.6-2.1,3c-0.2,0.9-0.9,2.2-2,3.9c-0.9,0.9-2.2,2.2-4,4.1
		c-0.3,0.1-0.6,0.2-1,0.5c-0.4,0.4-1.1,0.9-2.1,1.6c-5,2.6-9.7,4.1-14.2,4.5h-6c0.1,0-0.1-0.1-0.4-0.3c-3.3-0.1-5.7-0.5-7.4-1.4
		c-0.4-0.1-1-0.2-1.7-0.5c-1.2-0.5-3-1.3-5.4-2.6c-2.9-1.8-5.6-4.5-8.2-7.8c-1.4-1.9-2.7-4.3-3.8-7.3c-1-2.8-1.6-5.1-1.7-6.9
		c-0.2-3.2-0.1-6.4,0.4-9.4c0.2-0.4,0.4-1,0.7-1.7c0.2-0.9,0.5-2.2,1-4c0.7-1.1,1.5-2.6,2.6-4.6c0.2-0.3,0.2-0.7,0.2-1.2
		c0.2-0.2,0.5-0.1,0.9,0.1c0.2-0.4,0.2-1,0-1.8c0.4-0.1,1-0.4,1.7-0.8c0.2-0.6,0.8-1.4,1.7-2.3c1.8-1,4.6-2.4,8.2-4.3
		c0.9-0.5,2.1-0.8,3.6-1.2c3.7-0.8,6.2-1.3,7.5-1.3h3.5c2.8,0,5.1,0.3,7.1,0.8c1.1,0.3,3.4,1.2,7,2.5c0.8,0.5,2,1.2,3.6,2.3
		c2.4,1.5,4.5,3.6,6.4,6.2c1.7,2.4,2.8,4.5,3.4,6.5c0.2,0.3,0.5,0.8,0.9,1.5c0.7,1.8,1,4.5,1.1,8.1c0,0.1,0.1,0.4,0.2,0.8
		C252.4,51.6,252.4,52,252.4,52.2z M242.3,53.4c-0.3-3.8-1-7.3-2.2-10.4c-1.5-4.1-3.4-7.3-5.4-9.6c-3-3.3-6.2-5.2-9.7-5.8
		c-3.3-0.5-5.6-0.7-6.9-0.5c-2.4,0.3-4.5,0.8-6.2,1.6c-0.2,0.1-1.6,0.9-4.1,2.4c-0.2,0.3-0.4,0.7-0.8,1.1c-0.2,0.1-0.5,0.2-0.8,0.3
		c-0.6,0.8-1.4,1.8-2.3,3.2c-0.1,0.4-0.3,0.9-0.6,1.5c-0.5,0.7-0.9,1.6-1.5,2.6c-0.3,1.1-0.7,2.8-1.3,5c0,0.8,0,2.1,0,3.9
		c0,0.1-0.1,0.3-0.2,0.6c-0.1,0.3-0.2,0.5-0.1,0.6c0.4,2,1,4.7,1.8,8.2c-0.1,0.2-0.2,0.5-0.2,0.9c0.2,0.4,0.5,1,0.9,1.7
		c0,0.4,0.1,0.9,0.3,1.5c1.3,2.5,1.9,3.8,2,3.9c0.9,1.6,2.1,3.1,3.7,4.5c0,0,0.2,0.7,0.6,1.9c0.1,0,0.6,0.1,1.5,0.3
		c1.5,1.4,2.6,2.3,3.4,2.8c2.2,1.3,6.3,1.7,12.2,1.2c0.5-0.2,1.1-0.3,1.9-0.6c1-0.2,2.4-0.7,4.3-1.5c0.4-0.4,1-0.9,1.7-1.4
		c3-1.9,4.8-4.2,5.4-6.9c0.3-0.4,0.7-0.9,1.1-1.5c0.1-0.6,0.2-1.3,0.3-2c0.2-0.2,0.4-0.5,0.5-0.9c0.1-0.7,0.2-2.2,0.5-4.5
		C242.3,55.4,242.4,54.1,242.3,53.4z"/>
	<path style="fill:#FFFFFF;stroke:#000000;stroke-width:0.75;stroke-miterlimit:10;" d="M313.2,25.5c-0.6,0.1-1.4,0.2-2.5,0.5
		c-1.2,0.3-2.1,1.1-2.7,2.2c-0.9,1.7-1.5,3.3-1.7,4.9c-0.4,2.8-0.6,5.1-0.6,6.8c0,0.1,0.1,1.4,0.2,3.9c0.1,2.5,0.2,3.8,0.2,4V55
		c0,0.1,0.1,0.4,0.2,0.9c0.1,0.5,0.1,0.9,0.1,1.2c-0.2,3.7-0.3,5.7-0.3,6.2c0,0.2,0.1,0.7,0.2,1.5c0.1,0.7,0.2,1.2,0.2,1.3V80
		c0,0.2,0,0.3,0.1,0.3c0,0,0.1,0,0.1,0.1c-2.1,0.4-3.1,0.5-2.9,0.5c-1.3,0-2.1-0.1-2.4-0.4c-2.1-1.9-5.2-5.3-9.3-10.2
		c-0.7-1-1.8-2.4-3.3-4.2c-1.3-1.2-3-3.1-5.2-5.4c-0.5-0.9-1.5-2.3-2.7-4c-2.7-3.3-6.6-8.2-11.6-14.6c-0.7-0.5-1.6-1.3-2.7-2.5
		c0-0.2-0.1-0.5-0.3-0.9c-0.4-0.6-1-1.4-1.8-2.6c-0.6,0.3-1,0.8-1,1.4c0,0,0.2,1.5,0.6,4.6c0,0.2,0,0.5-0.1,0.8
		c-0.1,0.4-0.1,0.6-0.1,0.7c0,1.2,0.1,3.1,0.2,5.6c0.1,2.5,0.2,3.8,0.2,3.7v6.4c0,0.2,0,1.7,0.1,4.6c0,2.9,0.1,4.4,0.1,4.6
		c0,6.3,2.3,9.7,6.8,10c0.1,0,0.2,0.1,0.3,0.4c0.1,0.3,0.2,0.4,0.3,0.5c0,0.5,0,1-0.2,1.4h-15.8c-0.1,0-0.7,0.1-1.7,0.3
		c-1,0.2-1.6,0.3-1.7,0.3h-0.7c-0.3-0.3-0.4-0.4-0.4-0.5c0-1.1,0.3-1.8,1-2.1c0.8-0.2,1.9-0.7,3.5-1.4c1.5-0.8,2.4-2.1,2.7-3.9
		c0.8-4.4,1-7.1,0.5-8c-0.2-0.4-0.2-0.8-0.1-1.1l0.4-0.5l-0.3-0.4c0-0.3,0-0.9,0-1.7c0.1-0.8,0.1-1.4,0.1-1.8c0-0.4-0.1-1.2-0.3-2.2
		c-0.2-1-0.2-1.8-0.2-2.2c0,0.5,0.1-0.5,0.2-2.8c0-0.1-0.2-0.4-0.4-0.9l0.2-0.2c0.1-0.2,0.2-0.5,0.2-1c0.1-0.1,0.1-0.2,0-0.3
		c-0.4-3.4-0.6-5.7-0.6-6.9v-6.3c-0.2-3.6-0.3-5.8-0.3-6.5c0-0.1,0.1-0.3,0.2-0.6c0.1-0.3,0.1-0.6,0.1-0.8c-2.3-2.4-5.2-3.5-8.7-3.3
		l-0.2-0.2v-1.5c0.3-0.4,1.2-0.6,2.5-0.6c0.2,0,1.4,0.1,3.7,0.2c2.3,0.1,3.5,0.2,3.7,0.2c0.1,0,1.2-0.1,3.4-0.2
		c2.1-0.1,3.3-0.2,3.4-0.2c0.7,0,1.2,0,1.3,0.1c0.4,0.2,1.3,1.1,2.6,3c2.5,3.5,6.3,8.8,11.4,15.8c1,1.3,2.6,3.2,4.6,5.8
		c-0.4,2.7,0,4,1.1,4c0.1,0,0.4-0.1,0.7-0.3s0.6-0.3,0.8-0.3c0.4,0,0.9,0.6,1.6,1.7c0.3,0.6,0.7,1.1,1,1.7c2.2,1.8,3.6,3.1,4.1,4.1
		c0.1,0.5,0.3,1.3,0.6,2.3c0.2,0.3,0.4,0.5,0.6,0.5c0.2,0,0.3-0.1,0.5-0.2c0.2-0.1,0.2-0.2,0.3-0.2c0.8,0.9,1.9,2.2,3.3,3.9
		c0.5-0.2,0.8-0.5,0.8-0.7c0-0.2-0.1-0.4-0.2-0.8c-0.1-0.4-0.2-0.6-0.2-0.8v-4.9c0-0.2,0-0.4-0.1-0.7c0-0.3-0.1-0.7-0.1-1.1
		c0.1-0.6,0.2-1.4,0.3-2.5c-0.2-0.9-0.3-2.2-0.6-3.9c-0.1-0.2,0-0.7,0.1-1.4c0.1-0.7,0.2-1,0.2-1.1c0-0.1,0-0.4-0.1-0.7
		s-0.1-0.6-0.1-0.8c-0.1-0.5-0.1-1.3,0-2.2c0.1-1.2,0.1-2,0.1-2.4c0-0.2-0.1-0.4-0.2-0.8c-0.1-0.4-0.2-0.6-0.3-0.8l0.2-1.2
		c0-0.2,0-0.7-0.2-1.4c-0.1-0.7-0.2-1.2-0.2-1.6c0-0.1,0.1-0.4,0.2-0.8c0.1-0.4,0.2-0.7,0.1-0.9c-0.2-1.2-0.5-3.1-1-5.4
		c-0.4-1.6-2.1-2.6-5.2-3.1c0.1-0.5,0-1.1-0.2-1.6c0.3-0.3,1.4-0.4,3.2-0.4l8.3,0.3c-0.2,0,1.2-0.1,4.1-0.3c1.7-0.1,3.1,0,4,0.3
		V25.5z M296.3,60.2l-0.4,0.5l-0.3-0.3l0.2-1C296.4,60,296.6,60.2,296.3,60.2z"/>
	<path style="fill:#996699;stroke:#000000;stroke-miterlimit:10;" d="M398.4,49.6c0.2,2.4,0.1,6.7-0.5,12.8
		c-0.3,1.9-0.8,4.7-1.5,8.4c-1.4,8.1-4,14.5-7.7,19.4c-1.4,1.8-3.3,3.7-5.6,5.5c-2.7,2.2-4.9,3.4-6.5,3.6c-0.2,0.2-0.6,0.4-1.1,0.7
		c-5.1,1-7.6,1.5-7.4,1.5h-33.8c-0.3-1.7-0.2-2.7,0.3-3.1c1.4-0.7,2.4-1.1,3-1.1c0.2-0.4,0.5-0.9,0.9-1.6c1.6-2.3,2.4-4.9,2.4-7.8
		c0-0.1-0.1-0.6-0.3-1.7c0.1-0.5,0.2-1.2,0.3-2.1c-0.2-0.4-0.4-1-0.5-1.8c0-0.3,0-0.8,0.2-1.5c0.2-0.8,0.3-1.4,0.3-1.8
		c0.1-1.8,0.1-4.7,0.1-8.6v-8c0-5.5,0-13.5,0.1-23.9c0-0.2-0.1-0.5-0.3-1c-0.2-0.5-0.3-0.9-0.3-1c0-0.8,0.1-2,0.3-3.6
		c0.2-1.6,0.3-2.8,0.3-3.6c0-0.2-0.1-0.6-0.3-1.1c-0.2-0.5-0.4-1-0.4-1.3c0.1-0.9,0-2.3-0.1-4.2c-0.6-3.2-1.5-5.2-2.7-6
		c-0.9-0.7-2.6-1.3-4.9-1.7c-0.1-0.3-0.1-0.9-0.1-1.9c1.5-1,3-1.3,4.5-0.8c0.5,0.5,0.8,0.7,1,0.7c0.2-0.2,0.5-0.4,0.9-0.7
		c0.3,0.1,0.8,0,1.5,0c0.8-0.1,1.3-0.2,1.6-0.2c1.4,0,2.5,0.7,3.3,2.2c0.1,0,0.2,0,0.3,0c0.3-0.7,0.8-1.7,1.6-2.8
		c0.8,0.2,2,0.4,3.5,0.8c0.1,0,0.2-0.2,0.4-0.5c0.2-0.3,0.4-0.5,0.6-0.6c1-0.5,2.6-0.7,4.8-0.7h13.2c5.7,1.7,9.7,3.3,12.1,4.7
		c4.5,2.7,8.1,6.8,11,12.3c0.6,1.1,1.4,2.8,2.5,5.1C396.7,36.8,397.8,42.4,398.4,49.6z M396.1,49.5c-4.2-0.4-7.2-0.5-8.9-0.4
		c-0.4-0.3-0.6-0.7-0.5-1.2c0.1-0.4,0.2-0.9,0.2-1.3c-0.6-2-1.6-5-2.9-8.9c-1.8-5.2-3.9-9.2-6.1-12.3c-2.2-3-5.8-5.2-10.8-6.4
		c-2.2-0.5-3.3-0.8-3.1-0.8h-5.3c-0.1,0-1.1,0.2-2.8,0.7c-1.8,0.5-3,0.8-3.6,0.8c-0.5,3.3-0.7,6.9-0.5,10.8c0.1,1.9,0.1-1.2,0.1-9.2
		v28.2c0,19.2-0.1,28-0.2,26.2c0.2,2.7,0.3,3.9,0.3,3.5c-0.1,1.9-0.2,3.5-0.1,4.8c0,0.3,0.1,1,0.3,1.9c0.2,0.8,0.2,1.5,0.2,1.9
		c-0.1,0-0.6,0.3-1.7,1c-0.8,0.4-1.3,1-1.5,1.8c0.6,0.8,1.4,1.2,2.4,1.3c0.7,0,1.4,0.1,2.1,0.1c7,1.1,11,1.6,12.1,1.6
		c3.3,0,6.2-0.7,8.7-2.1c2.2-1.2,4-2.8,5.5-4.8c3-4.3,5-9.5,6-15.8c0.5-3.1,0.8-8.1,1-15.2c0-0.6-0.3-1.4-0.9-2.5
		c-0.1-0.6,0-1,0.3-1.1c0.6-0.3,1.6-0.5,3.2-0.8c1.4-0.2,3.5-0.5,6.1-0.9C396,50.3,396.1,49.9,396.1,49.5z"/>
	<path style="fill:#996699;stroke:#000000;stroke-miterlimit:10;" d="M447.2,66c-0.1,1.6-0.3,3.8-0.6,6.7c-0.4,0.8-0.8,1.9-1.4,3.3
		c-0.1,0.6-0.3,1.5-0.7,2.5c-0.1,0.3-0.5,0.9-1.2,1.7c-0.8,1-1.4,1.5-1.9,1.5h-11.6c-0.2,0-1.6,0-4.1-0.1s-3.9-0.1-4.1-0.1h-7
		c-0.2,0-1.1-0.1-2.8-0.3c-1.7-0.2-2.6-0.2-2.8-0.2h-6.9l-0.6-0.6c0.3-0.4,1.7-1.3,4-2.7c1.6-1,2.4-2.2,2.4-3.6V59.6
		c0-2.3,0.4-5.5,1.1-9.4c-0.4-1.2-0.5-2.7-0.2-4.5c-0.5-0.5-0.8-1.1-0.8-1.9c0-0.1,0.3-1.3,0.9-3.7c0-0.2-0.1-0.6-0.5-1.3
		c-0.4-0.8-0.7-1.2-0.7-1.2c-0.2-0.6-0.3-1.6-0.3-3c0-1.9,0-2.9,0-3.1c-0.1-1-0.3-1.9-0.6-2.5c-0.5-0.9-1.2-1.6-2.2-2.1
		c-0.9-0.4-1.8-0.8-2.7-1.2c0.4-1,0.9-1.5,1.4-1.6c0.9,0.1,2.3,0.2,4,0.1c1.9-0.5,2.9-0.7,2.8-0.7h8c0.1,0,1,0.1,2.7,0.3
		c1.7,0.2,3,0.3,3.9,0.4c0.4,0,3.4-0.2,9.1-0.6c1.3-0.1,4.7,0,10.2,0.3c0.5,0.3,0.7,0.7,0.7,1.2c0,0.3-0.1,0.7-0.3,1.2
		c-0.2,0.5-0.3,0.9-0.3,1.1c0,1-0.3,4.3-1,9.9c-0.1,0.2-0.5,0.5-1.3,0.9c-0.2-0.3-0.7-1.9-1.7-4.9c-0.6-1.9-1.7-3-3.4-3.1
		c-0.7-0.2-1.3-0.3-2-0.5c-0.9-0.2-1.7-0.2-2.2-0.1c-1.3,0.4-4.2,0.4-8.7,0.1c-2.5-0.2-4.3-0.1-5.5,0.1c-0.4,0.1-0.6,0.4-0.7,1
		c1.1,3.5,1.1,6.7,0.1,9.4c0.1-0.2,0.1,0.6,0.1,2.3c0,0.4-0.1,1.3-0.2,2.6c-0.2,1.1-0.2,2-0.1,2.6c0,0.3,0.3,0.7,0.9,1.2h17.1
		c0.5-0.2,1.1-0.4,1.6-0.5c0.8-0.3,1.4-0.8,1.8-1.4c0.3-0.8,0.9-1.9,1.7-3.3c1,0,1.6,0.3,1.9,1c-0.1,1.7-0.2,3.9-0.4,6.6
		c0,1.8-0.2,4.4-0.6,7.9c-0.1,0.5-0.7,0.7-1.8,0.5c-0.4-0.7-1.1-1.7-2.1-2.9c-1.8-1.4-3.5-2.1-5-2.1h-6.3c-0.4,0-1.2-0.1-2.3-0.2
		c-1.2-0.2-2-0.2-2.6-0.2c-1.6,0-2.6,0.5-3,1.4c-0.5,1.1-0.7,1.9-0.7,2.5c0,0.5,0.1,1.6,0.3,3.1c0.2,1.5,0.3,2.7,0.3,3.5
		c0,0.4-0.2,1.2-0.4,2.4c-0.3,1.2-0.4,2.1-0.4,2.7c0,0.5,0.1,1,0.2,1.4c0.2,0.7,1,1.6,2.5,2.6s2.7,1.6,3.7,1.8
		c0.2,0.1,0.3,0.1,0.5,0.2c0.3,0.1,0.6,0.1,0.8,0.1h7.5c1.7,0,3.1-0.3,4.3-0.8c1.6-0.7,3.2-1.9,4.7-3.6c1.7-1.9,2.6-3.7,2.7-5.4
		C445,65.8,446,65.7,447.2,66z"/>
	<path style="fill:#996699;stroke:#000000;stroke-miterlimit:10;" d="M558.1,14.9c0.1,0.6-0.6,1.3-2.2,1.9c-2.1,0.8-3.2,1.2-3.3,1.3
		c-1.6,1.2-2.8,3.1-3.5,5.9c-0.8,1.7-1.8,4.3-2.8,7.8c-0.2,1.2-0.7,2.7-1.5,4.6c-1.2,2.7-1.9,4.1-1.9,4.3c0,0.5-0.1,1.2-0.1,2
		c0,0.3-0.1,0.5-0.1,0.7c-2.8,8.5-6.9,21.3-12.4,38.4c-0.5,1.8-1,3.6-1.5,5.4c-0.8,2.1-1.8,3.2-3.1,3.2c-0.5,0-1-0.1-1.5-0.4
		c0-0.2,0.1-0.6,0.3-1.3c0.2-0.6,0.3-1.1,0.2-1.5c-0.1-0.2-0.4-0.5-1-1c-0.4-0.4-0.6-0.9-0.6-1.5c0-0.5,0-1.1-0.1-2
		c-0.5-1.2-1.3-3.1-2.1-5.8c-0.1-0.9-0.2-1.8-0.2-2.7c-0.2-1.4-0.7-2.5-1.5-3.3c-0.1-0.3-0.2-0.7-0.3-1.1c0.2-0.6,0.3-1.2,0.3-1.7
		c0-1-0.4-2.1-1.1-3.2c-0.7-0.8-1.4-1.7-2.1-2.5c0.4-0.5,0.8-1.2,1.4-2c-0.5-0.5-1.1-1.3-1.6-2.4c0-0.6-0.1-1.6-0.2-3
		c-0.4-0.7-1-1.8-1.8-3.4c-0.2-0.3-0.2-0.9,0-1.7c0.2-1.2,0.3-1.9,0.3-2.4c-0.4-0.2-0.7-0.3-1-0.3c-0.7,0-1.3,0.4-1.6,1.3
		c-0.6,2.1-1.4,5.1-2.6,9.2c-0.1,0.2-1,2.4-2.6,6.5c-1.2,3.1-2,5.6-2.2,7.4c-0.5,1.1-1.1,2.8-1.8,5.1c-0.6,2.8-1.1,4.8-1.5,6.3
		c-0.7,2.6-1.6,4.7-2.5,6.3c-0.9,0.5-2,0.5-3.1,0c-0.6-1.4-1.2-3.1-1.5-5.4c-0.5-2.6-0.8-4.3-1.1-5.1c-0.5-1.5-1.2-2.8-2.1-3.7
		c0.4-2.4,0.3-4.2-0.2-5.4c-0.6-0.5-1.4-1.4-2.5-2.7c0-0.5-0.1-1.1-0.1-1.9c0-0.2,0-0.4-0.1-0.5c-0.6-1.1-1.3-2.8-2.2-5.1
		c0.1-0.5,0.1-1.2-0.1-2.1l0.9-0.8c0.9,0.8,2.2,1.6,4,2.4c0.2-0.9-0.2-1.8-1-2.7c-0.9-1.1-1.4-1.9-1.5-2.5c-4.2-2.1-6.3-4.4-6.3-6.9
		c0-0.6,0.1-1.2,0.4-1.7c-0.6-0.8-1.3-2-2-3.7c-0.3-1.4-0.8-3.4-1.5-6.1c-0.5-0.6-1.1-1.5-1.9-2.7c0.1-0.8,0.1-2.1,0.1-3.8
		c-0.5-0.7-1.2-2-2.1-3.7c-0.5-1.1-1-2.1-1.5-3.1c-0.7-1.3-1.4-2.2-2.3-2.8c-0.7-0.5-2.4-1-5.1-1.5c0.1,0-0.2-0.3-0.7-0.9
		c0.2-0.3,0.4-0.6,0.8-1c1.6-0.2,4.3,0,8.3,0.5c0.6,0.1,1.6,0,2.9-0.2c1.4-0.2,2.2-0.4,2.2-0.4H489c0.2,0,0.6-0.2,1.1-0.5
		c0.5-0.3,0.9-0.5,1.1-0.5c0.2,0.3,0.2,0.6,0.2,0.9c0,0.7-0.8,1.4-2.5,2.3c-1.7,0.8-2.6,1.9-2.6,3.1c-0.1,1.9,0.5,4,1.8,6.4
		c0.2,0.4,0.4,1.1,0.4,2.2c0,1.2,0.1,2.1,0.2,2.6c0.3,1.4,1.7,5,4.2,10.9c0.1,0.8,0.1,1.9,0.2,3.4c0.2,0.3,0.5,0.8,0.8,1.4
		c-0.1,1.1,0.3,2.4,1,4c1,1.9,1.6,3.1,1.7,3.5c0.4,1.8,0.9,3.7,1.3,5.5c0.6,2.3,1.3,4.2,2.1,5.6c0.8,0,1.4-0.4,1.6-1.3
		c1.5-4.7,2.7-9.1,3.6-13.2c0.3-0.3,0.7-0.9,1.1-1.7c0.2-1.4,0.8-3.5,1.6-6.2c1.2-2.7,1.8-4.6,1.8-5.8c0-0.7-0.1-1.3-0.3-1.9
		c-1.3-3.7-3.2-9.3-5.8-16.6c-0.5-0.5-1.7-1.2-3.4-2c-1.5-0.7-2.4-1.3-2.6-1.8c0.9-0.2,2.2-0.4,4-0.8c0,0.7,0.1,1.1,0.3,1.3
		c0.8,0.2,1.6,0.2,2.5,0.2c1.1,0,2.6-0.1,4.5-0.4c2.6-0.4,4.2-0.6,4.8-0.6c0.5-0.1,2,0,4.6,0.1c1.9,0.1,3.4-0.1,4.6-0.6
		c0.2,0.5,0.3,0.8,0.3,1.1c0,0.6-0.6,1-1.8,1.3c-1.6,0.3-2.7,0.9-3.4,1.6c-0.4,0.4-0.6,1.2-0.6,2.3c0,0.7,0.2,1.8,0.6,3.2
		c0.5,1.8,0.8,3,0.9,3.6c-0.2,0.9-0.2,2.3-0.1,4c0.7,0.8,1.5,1.9,2.5,3.4c0.2,1.3,0.5,3.1,0.9,5.4c0,0,0.5,1.7,1.5,5
		c0.6,2.1,1,3.8,1,4.9c0,0.3,0,0.6,0,0.9c0.6,0.5,1.2,1.2,1.8,2c0.1,0.5,0.4,2.4,0.9,5.6c0.4,2.6,0.6,4.6,0.6,5.9
		c0.2,0.3,0.5,0.6,0.8,0.9c0.5-0.2,1.1-0.6,1.7-1.3c0.8-1.6,1.9-4.2,3.4-7.8c0.4-2.5,1-6,1.9-10.5c0.1-0.3,0.8-1.3,2.2-2.8
		c0.1-3,0.8-6.1,2.4-9.2c0-0.7,0.2-1.7,0.5-3c0.3-0.3,0.7-0.9,1.1-1.7c0.2-1.5,0.8-3.7,1.7-6.8c0.8-1.9,0.5-3.4-0.6-4.5
		c-0.5-0.4-1.3-0.8-2.6-1.1c-1.5-0.4-2.6-0.8-3.1-1c0.7-1,2.3-1.4,5-1.1c0.1,0,0.3,0.1,0.7,0.2c0.4,0.2,0.7,0.2,1,0.2
		c0.2,0,0.7-0.1,1.5-0.4c0.7-0.2,1.5-0.4,2.2-0.5c0.4,0,1.1,0,2,0.2c0.9,0.2,1.6,0.3,2,0.3C553.8,15.5,555.9,15.3,558.1,14.9z
		 M485.3,53.2l-1.2,0.8l-0.3-0.5l1.2-0.8L485.3,53.2z"/>
	<path style="fill:#996699;stroke:#000000;stroke-miterlimit:10;" d="M577.3,28.6c-0.1,0.5-0.3,1.1-0.6,1.9l-2.7,0.6
		c-1.2,0.3-1.9,0.8-2.2,1.5c-0.2,0.4-0.5,0.9-0.9,1.5c-0.1,0.2-0.5,2-1.2,5.3l-0.2,19.1c-0.2,0.8-0.3,1.2-0.3,1.3l0.3,1l-0.1,7
		c-0.2,1-0.2,2.3,0,4c0.2,2,0.6,3.6,1.3,4.8c0.2,0.4,0.7,0.9,1.6,1.4c1.6,0.9,3.1,1.3,4.7,1.3c0,0.4-0.2,1-0.5,1.7h-5.3
		c-0.1,0-0.6,0-1.6-0.1c-1-0.1-1.5-0.1-1.5-0.1c-0.1,0-0.5,0-1.2,0.1c-0.7,0.1-1.1,0.1-1.2,0.1s-0.3,0-0.8-0.1
		c-0.5-0.1-0.8-0.1-0.9-0.1s-0.3,0-0.6,0.1c-0.3,0.1-0.5,0.1-0.6,0.1l-9.5,0.2c-0.8,0-1.2-0.3-1.2-0.9c0-0.7,0.2-1.1,0.6-1.2
		c1-0.2,1.9-0.3,2.9-0.5c1.1-0.2,1.8-0.7,2.2-1.2c0.1-0.4,0.3-0.9,0.5-1.7c0.4,0,1.1,0.1,2,0.3c0.3-1.2,0.5-2,0.5-2.4
		c0-0.3-0.2-0.8-0.5-1.4c0.2-0.6,0.3-1.1,0.1-1.5c-0.1-0.3-0.4-0.8-0.9-1.5c-0.4-0.6-0.6-1-0.6-1.1c0,0.2,0.3-0.7,0.8-2.7
		c0.1-0.2,0-0.6-0.3-1c0.5-0.8,0.8-1.4,0.8-1.7c0-0.1-0.1-1-0.2-3c0-0.2-0.1-0.4-0.3-0.9c-0.2-0.4-0.3-0.7-0.3-0.8
		c0-0.1,0.1-0.3,0.4-0.6c-0.1,0.1-0.1,0-0.1-0.5v-5.5c0-0.1,0.1-0.4,0.2-0.8c0.1-0.5,0.2-0.7,0.2-0.8c0-0.1,0-0.2-0.1-0.3
		s-0.1-0.3-0.1-0.4c0,0.1,0-0.6,0.1-2c0-0.3-0.1-1.2-0.2-2.5v-3.6c0-0.3-0.2-0.8-0.6-1.5c0.1-0.3,0-1-0.3-1.9c0-0.4-0.2-1.1-0.4-1.9
		c-0.2-0.3-0.5-0.7-0.9-1.2c-0.1-0.3-0.3-0.8-0.6-1.4c-0.6-0.9-1.2-1.5-1.7-1.8c-0.7-0.2-1.7-0.5-3.1-1c0.1-0.4,0.3-1,0.5-1.6h0.4
		c0.1,0,0.4,0,0.8,0.1c0.5,0.1,0.7,0.1,0.8,0.1L577.3,28.6z"/>
	<path style="fill:#996699;stroke:#000000;stroke-miterlimit:10;" d="M625.8,24.3c-0.2,1.2-0.4,2.5-0.6,4.1V39c-0.2,0-0.4,0-0.8,0.1
		s-0.7,0.1-0.8,0.1c-0.1-0.2-0.3-2-0.7-5.4c-0.2-1.9-1.1-3.4-2.7-4.5c-0.7-0.5-2.2-0.5-4.7,0.1c-1.2,0.1-3,0.4-5.4,0.9
		c-0.8,0.3-1.3,0.8-1.5,1.5c-0.5,1.9-0.6,4.7-0.2,8.4c0.4,3.7,0.3,8.7-0.3,15.1c0,0,0.2,2.1,0.6,6.3c-0.1,1.5-0.2,3.6-0.1,6.5
		c0.3,1.5,0.8,3.9,1.5,7c0.3,1.5,1.3,2.5,3,2.9c1.4,0.3,2.8,0.7,4.2,1c0,0.5-0.3,1.1-1,2h-25.7c-0.2,0-0.4-0.2-0.4-0.5
		c0-0.1,0-0.3,0-0.7c0.9-0.2,2.3-0.7,4.1-1.3c1.6-0.8,2.7-1.9,3.5-3c0.2-0.3,0.4-1.7,0.6-4.1c0.1-4.2,0.3-8.6,0.5-13.1V41.9h1.2
		c0.1,0,0.2-0.2,0.3-0.4c-0.4-1-0.9-2.4-1.5-4.3c-0.1-0.4-0.3-2.7-0.7-6.9h-8.4c-0.9,0-2,0.5-3.3,1.5c-1.3,1-2,1.8-2.1,2.4
		c-0.6,2.7-1.3,4.6-1.9,5.6c-0.3,0.5-1,0.8-2,0.8c0-0.1-0.1-0.5-0.2-1.1c-0.1-0.5-0.1-0.9,0-1.2c0.4-1.2,0.7-3.2,1-5.8
		c0.4-3.1,0.7-5.3,0.9-6.4l1.5-1.9c-0.9-0.1,1.9-0.1,8.3-0.1c1.9,0,4.7,0.2,8.6,0.5c3.8,0.3,5.7,0.5,5.5,0.5h7.5
		c0,0,0.9-0.2,2.7-0.5c2-0.3,3.9-0.5,5.8-0.6c0.7-0.1,1.4-0.2,2.1-0.3C624.9,23.5,625.5,23.8,625.8,24.3z"/>
	<path style="fill:#996699;stroke:#000000;stroke-miterlimit:10;" d="M672.8,24.3c-0.2,1.2-0.4,2.5-0.6,4.1V39c-0.2,0-0.4,0-0.8,0.1
		s-0.7,0.1-0.8,0.1c-0.1-0.2-0.3-2-0.7-5.4c-0.2-1.9-1.1-3.4-2.7-4.5c-0.7-0.5-2.2-0.5-4.7,0.1c-1.2,0.1-3,0.4-5.4,0.9
		c-0.8,0.3-1.3,0.8-1.5,1.5c-0.5,1.9-0.6,4.7-0.2,8.4c0.4,3.7,0.3,8.7-0.3,15.1c0,0,0.2,2.1,0.6,6.3c-0.1,1.5-0.2,3.6-0.1,6.5
		c0.3,1.5,0.8,3.9,1.5,7c0.3,1.5,1.3,2.5,3,2.9c1.4,0.3,2.8,0.7,4.2,1c0,0.5-0.3,1.1-1,2h-25.7c-0.2,0-0.4-0.2-0.4-0.5
		c0-0.1,0-0.3,0-0.7c0.9-0.2,2.3-0.7,4.1-1.3c1.6-0.8,2.7-1.9,3.5-3c0.2-0.3,0.4-1.7,0.6-4.1c0.1-4.2,0.3-8.6,0.5-13.1V41.9h1.2
		c0.1,0,0.2-0.2,0.3-0.4c-0.4-1-0.9-2.4-1.5-4.3c-0.1-0.4-0.3-2.7-0.7-6.9h-8.4c-0.9,0-2,0.5-3.3,1.5c-1.3,1-2,1.8-2.1,2.4
		c-0.6,2.7-1.3,4.6-1.9,5.6c-0.3,0.5-1,0.8-2,0.8c0-0.1-0.1-0.5-0.2-1.1c-0.1-0.5-0.1-0.9,0-1.2c0.4-1.2,0.7-3.2,1-5.8
		c0.4-3.1,0.7-5.3,0.9-6.4l1.5-1.9c-0.9-0.1,1.9-0.1,8.3-0.1c1.9,0,4.7,0.2,8.6,0.5c3.8,0.3,5.7,0.5,5.5,0.5h7.5
		c0,0,0.9-0.2,2.7-0.5c2-0.3,3.9-0.5,5.8-0.6c0.7-0.1,1.4-0.2,2.1-0.3C671.9,23.5,672.5,23.8,672.8,24.3z"/>
</g>
<g>
</g>
<g>
</g>
<g>
</g>
<g>
</g>
<g>
</g>
<g>
</g>
<g>
</g>
<g>
</g>
<g>
</g>
<g>
</g>
<g>
</g>
<g>
</g>
<g>
</g>
<g>
</g>
<g>
</g>
<g>
</g>
</svg>
