<?xml version="1.0" encoding="iso-8859-1"?>
<!-- Generator: Adobe Illustrator 19.1.1, SVG Export Plug-In . SVG Version: 6.00 Build 0)  -->
<svg version="1.1" id="Layer_1" xmlns="http://www.w3.org/2000/svg" xmlns:xlink="http://www.w3.org/1999/xlink" x="0px" y="0px"
	 viewBox="0 0 800 120" style="enable-background:new 0 0 800 120;" xml:space="preserve">
<g>
	<rect x="13.9" y="7.2" style="fill:none;" width="790.7" height="90.6"/>
	<path style="fill:#FFFFFF;stroke:#000000;stroke-width:0.75;stroke-miterlimit:10;" d="M93,51.7c0,12.8-3.5,22.8-10.4,30
		C75.7,88.9,66.1,92.4,54,92.4c-10.7,0-19.5-3.7-26.3-11.1c-6.7-7.2-10-16.9-10-29.1c0-12.8,2.9-23.2,8.8-31.2
		c6.4-8.5,15.6-12.8,27.7-12.8c12.2,0,21.7,3.8,28.6,11.4C89.6,27.3,93,38,93,51.7z M83.5,52c0-11.2-2.5-19.7-7.6-25.6
		c-5-5.9-12.2-8.9-21.5-8.9c-8.8,0-15.6,2.9-20.2,8.7c-4.6,5.8-6.9,14.2-6.9,25.3c0,9.7,2.6,17.5,7.7,23.3
		c5.1,5.8,11.8,8.7,19.9,8.7c8.7,0,15.6-2.8,20.8-8.3C80.9,69.6,83.5,61.8,83.5,52z"/>
	<path style="fill:#FFFFFF;stroke:#000000;stroke-width:0.75;stroke-miterlimit:10;" d="M137,35.5c0,1.2-0.3,2.1-1,2.9
		c-0.7,0.8-1.5,1.2-2.5,1.2c-0.7,0-1.8-0.5-3.2-1.6c-1.4-1.1-2.7-1.6-3.9-1.6c-2.9,0-5.2,1.3-7,3.8c-1.8,2.5-2.7,5.9-2.7,10.2v5.9
		c0,6.6-0.7,11.9-2.1,15.8c-1.3,3.7-3,5.5-5,5.5c-2.8,0-4.1-1.4-4.1-4.1c0-0.5,0.4-2.6,1.3-6c0.8-3.5,1.3-6.7,1.3-9.8
		c0-8.5-1.2-15.3-3.6-20.3c-0.1-0.2-0.9-1.7-2.5-4.6c-0.8-1.5-1.2-2.7-1.2-3.5c0-1,0.5-1.9,1.4-2.7c0.9-0.8,2-1.3,3-1.3
		c3.2,0,5.9,3.9,8,11.8c3.1-6.1,7.7-9.1,13.8-9.1c3,0,5.5,0.7,7.4,2.1C136,31.6,137,33.4,137,35.5z"/>
	<path style="fill:#FFFFFF;stroke:#000000;stroke-width:0.75;stroke-miterlimit:10;" d="M178.7,31.6c0,3-1.5,4.5-4.6,4.5
		c-1.1,0-1.9-0.4-2.5-1.1c-0.4-0.7-0.9-1.4-1.3-2.1c-1.9-2.4-4.4-3.6-7.5-3.6c-5.4,0-8,3-8,9.1c0,2.1,0.5,3.9,1.5,5.4
		c0.8,1.3,2.3,2.8,4.4,4.4c4.8,3.7,7.8,6.2,8.9,7.6c2.5,2.8,3.7,6.1,3.7,9.8c0,4.8-1.6,8.8-4.7,11.8c-3.1,3-7.3,4.6-12.3,4.6
		c-4.8,0-8.8-1.3-11.9-3.8c-3-2.4-4.5-5.5-4.5-9.2c0-3.7,1.6-5.6,4.8-5.6c2.7,0,4.1,2.1,4.2,6.2c2.2,2.6,4.6,3.9,7.3,3.9
		c2.3,0,4.1-0.7,5.5-2.1c1.4-1.4,2.2-3.1,2.2-5.2c0-1.9-0.9-3.6-2.6-5.3c0-0.1-2.3-1.8-6.7-5.3c-6.1-4.8-9.2-10.5-9.2-17
		c0-5.3,1.6-9.6,4.9-12.9c3.3-3.3,7.5-4.9,12.8-4.9c4.3,0,8,1.1,11.1,3.4C177.2,26.6,178.7,29,178.7,31.6z"/>
	<path style="fill:#FFFFFF;stroke:#000000;stroke-width:0.75;stroke-miterlimit:10;" d="M235.1,47.8c0,8.9-2.6,16-7.8,21.3
		c-5.2,5.3-12.2,7.9-20.8,7.9c-7.2,0-12.9-2.5-16.9-7.4c-4.1-4.9-6.1-11.8-6.1-20.5c0-9.2,2.5-16.3,7.4-21.4
		c4.8-5,11.6-7.5,20.2-7.5c7.2,0,13,2.5,17.5,7.6C232.9,32.8,235.1,39.5,235.1,47.8z M226.1,47.9c0-6.1-1.5-10.8-4.4-14.3
		c-3-3.4-7-5.2-12.1-5.2c-11.4,0-17.1,6.9-17.1,20.6c0,6.3,1.2,11.2,3.7,14.6c2.5,3.4,6,5.1,10.7,5.1c6,0,10.7-1.8,14.1-5.5
		C224.4,59.6,226.1,54.5,226.1,47.9z"/>
	<path style="fill:#FFFFFF;stroke:#000000;stroke-width:0.75;stroke-miterlimit:10;" d="M287.8,49.9c0,7.2-1.2,14.4-3.5,21.5
		c-1.4,4.4-3.2,6.6-5.4,6.6c-1.1,0-2.1-0.4-2.9-1.1c-0.8-0.7-1.2-1.6-1.2-2.6c0-0.3,0.7-3,2.2-8.3c1.5-5.3,2.2-10.5,2.2-15.6
		c0-11.8-3.7-17.7-11.1-17.7c-4.2,0-7.7,1.6-10.3,4.7c-2.8,3.2-4.1,7.4-4.1,12.7c0,2.9,0.4,7,1.2,12.3c0.8,5.3,1.2,9,1.2,11.2
		c0,5.2-1.5,7.8-4.5,7.8c-1.5,0-2.6-0.3-3.1-1c-0.5-0.5-0.8-1.6-1.1-3.2c0-1.9-0.4-7.3-1.1-16.3c-1.2-12.5-1.9-21.4-1.9-26.7
		c0-9.2,1.8-13.8,5.3-13.8c1.2,0,2.1,0.4,3,1.1c0.8,0.7,1.2,1.5,1.2,2.5c0,0.7-0.2,1.9-0.5,3.8c-0.4,1.8-0.5,3.4-0.5,4.7v1
		c4.5-6.1,9.9-9.1,16.3-9.1c5.9,0,10.5,2.2,13.8,6.6C286.2,35.5,287.8,41.8,287.8,49.9z"/>
	<path style="fill:#996699;stroke:#000000;stroke-miterlimit:10;" d="M396.1,50.5c0,25.8-16.7,38.6-50,38.6c-2.9,0-5.8-0.1-8.8-0.4
		c-0.8,2.4-2.2,3.6-4.1,3.6c-1.1,0-2.1-0.3-2.8-0.9c-0.8-0.6-1.2-1.4-1.2-2.2c0,0.5,0.5-2.7,1.4-9.8c1-7.1,1.4-14.5,1.4-22.2
		c0-10.9-0.7-21.4-2-31.5c-2.5-0.5-3.8-1.9-3.8-4.3c0-1.6,0.9-2.9,2.7-3.8l-0.1-0.6c0-0.1,0-0.2,0-0.3c0-0.1,0-0.2,0-0.3
		c0-2.4,1.4-3.6,4.2-3.6c2.3,0,3.7,1,4.1,3.1c5.8-1.1,11.2-1.7,16.2-1.7c13.7,0,24.2,3.2,31.6,9.5C392.3,29.9,396.1,38.8,396.1,50.5
		z M387.1,50.9c0-9.3-2.9-16.3-8.7-21.2c-5.8-4.9-14.2-7.3-25.2-7.3c-3.9,0-8.9,0.6-14.9,1.7c1.4,11,2.1,22,2.1,32.9
		c0,8.1-0.5,16-1.6,23.5c1.3,0.1,3.1,0.2,5.5,0.2c12.5,0,21.9-1.4,28-4.1C382.2,72.2,387.1,63.6,387.1,50.9z"/>
	<path style="fill:#996699;stroke:#000000;stroke-miterlimit:10;" d="M448.6,42c0,3.1-1.1,5.5-3.3,7c-1,0.7-4,1.5-9.2,2.6
		c-6.9,1.4-12.7,2.1-17.6,2.1c-2.2,0-4.9-0.2-8-0.5c0,11.4,4.3,17.1,13,17.1c2.4,0,4.6-0.7,6.5-2c1-0.7,2.7-2.3,5.2-4.9
		c0.9-0.9,1.9-1.4,2.9-1.4c1.3,0,2.4,0.5,3.3,1.4c0.9,1,1.4,2.1,1.4,3.5c0,1.2-0.4,2.2-1.3,3.2c-5.2,5.7-11.3,8.5-18.3,8.5
		c-14.5,0-21.7-8.4-21.7-25.1c0-8.6,2.3-16.1,6.9-22.3c5.2-7.1,11.7-10.7,19.4-10.7c6,0,11,2,14.9,6C446.6,30.7,448.6,35.8,448.6,42
		z M439.5,42.6c-0.2-4.2-1.3-7.5-3.3-10s-4.5-3.7-7.6-3.7c-3.9,0-7.4,1.4-10.4,4.2c-3.1,2.8-5.4,6.9-6.9,12.1
		c2.1,0.2,4.4,0.4,6.9,0.4C424.1,45.6,431.2,44.6,439.5,42.6z"/>
	<path style="fill:#996699;stroke:#000000;stroke-miterlimit:10;" d="M571.8,10.3c0,1.1-0.4,2.1-1.3,3s-1.8,1.4-2.8,1.4
		c-0.5,0-1.1-0.1-1.7-0.3s-1.1-0.3-1.5-0.5c0,0-0.4-0.2-1.1-0.5c-2,34.2-6.6,59.2-14,75c-1.9,4.1-4.2,6.1-6.9,6.1
		c-7.5,0-13.1-14.8-16.8-44.4c-4.8,14.3-8.8,24.4-11.9,30.2c-3.5,6.6-7,9.9-10.4,9.9c-2.4,0-4.6-1.4-6.6-4.3
		c-2-2.7-4.1-7.2-6.4-13.4c-4.6-12.4-6.9-31-6.9-55.9v-3.3c-0.6,0.1-1.4,0.2-2.4,0.4c-0.8,0.2-1.5,0.3-1.8,0.3c-3,0-4.5-1.6-4.5-4.7
		c0-3.7,4.8-5.5,14.5-5.5c4.5,0,8.1,0.6,10.9,1.7c2.7,1.1,4.1,2.6,4.1,4.2c0,3.2-1.5,4.9-4.4,4.9c-0.7,0-1.8-0.2-3.3-0.6
		c-1.6-0.5-3-0.8-4-0.9l-0.2,11.4c0,22.6,3.8,40.9,11.3,55.1c4.7-6.4,10-19.4,15.9-38.8c1.1-3.5,2.1-7.7,3.2-12.8
		c0.9-4.2,1.6-6.8,2.1-8c0.8-1.8,2-2.8,3.6-2.8c2.2,0,3.6,1,4.3,3.1c0.5,1.5,0.7,4.6,0.7,9.3c0,0.8,0,1.7,0,2.7c0,1,0,1.7,0,1.9
		c0,18.4,3,34.5,9,48.2c6.4-16.2,10.4-39.6,12.1-70.1c-0.5,0-1.2,0.2-2.3,0.4c-0.9,0.2-1.6,0.3-2.1,0.3c-3,0-4.5-1.5-4.5-4.6
		c0-3.5,4.1-5.3,12.2-5.3c4.1,0,7.5,0.7,10.3,2.2C570.5,6.8,571.8,8.4,571.8,10.3z"/>
	<path style="fill:#996699;stroke:#000000;stroke-miterlimit:10;" d="M584.5,29.3c0,18.3-0.7,31.7-2,40.5c-0.5,3.5-1.1,5.9-1.7,7.1
		c-0.8,1.6-2.1,2.4-4,2.4c-1.2,0-2.2-0.4-3.1-1.2c-0.8-0.8-1.3-1.8-1.3-2.9c0,0.2,0.2-0.9,0.7-3.1c0.6-2.5,1-5.4,1.4-8.7
		c0.5-4.6,0.7-9.7,0.7-15.4c0-2.5,0-5.1-0.1-7.9c-0.1-2.8-0.1-4.3-0.1-4.5c0-4.1,0.3-6.9,1-8.5c0.7-1.8,2.1-2.6,4.1-2.6
		C583.1,24.4,584.5,26,584.5,29.3z M586.5,12c0,4.3-2.1,6.4-6.3,6.4c-1.7,0-3.1-0.6-4.3-1.8s-1.7-2.6-1.7-4.3c0-1.8,0.6-3.4,1.9-4.6
		s2.8-1.9,4.7-1.9c1.7,0,3.1,0.6,4.2,1.7C585.9,8.6,586.5,10.1,586.5,12z"/>
	<path style="fill:#996699;stroke:#000000;stroke-miterlimit:10;" d="M636,38.5c0,1.1-0.3,2-1,2.7s-1.5,1.1-2.4,1.1
		c-0.5,0-2.2-0.6-5.2-1.8c-3-1.2-6-1.8-8.8-1.8c-0.9,0-1.9,0.1-2.9,0.2c-1.1,4.9-1.7,9.5-1.7,13.6c0,5.3,0.9,9.4,2.7,12.2
		s4.3,4.3,7.4,4.3c1,0,2.2-0.3,3.8-0.9c1.6-0.6,2.7-0.9,3.4-0.9c2.4,0,3.6,1.4,3.6,4.3c0,1.8-1,3.3-3,4.5s-4.7,1.7-8.2,1.7
		c-12.8,0-19.3-8.6-19.3-25.7c0-3.6,0.4-7.6,1.3-11.9c-0.8,0.1-2.7,0.5-5.5,1c-1.8,0.4-3.2,0.5-4.1,0.5c-3.2,0-4.9-1.2-4.9-3.7
		c0-3.4,5.6-5.6,16.8-6.6c2.3-7.3,5.1-10.9,8.4-10.9c1,0,1.9,0.4,2.6,1.1s1.1,1.6,1.1,2.7c0,0.8-0.2,1.8-0.7,3
		c-0.5,1.2-0.9,2.4-1.4,3.6C630.2,31.2,636,33.7,636,38.5z"/>
	<path style="fill:#996699;stroke:#000000;stroke-miterlimit:10;" d="M679.8,38.5c0,1.1-0.3,2-1,2.7s-1.5,1.1-2.4,1.1
		c-0.5,0-2.2-0.6-5.2-1.8c-3-1.2-6-1.8-8.8-1.8c-0.9,0-1.9,0.1-2.9,0.2c-1.1,4.9-1.7,9.5-1.7,13.6c0,5.3,0.9,9.4,2.7,12.2
		s4.3,4.3,7.4,4.3c1,0,2.2-0.3,3.8-0.9c1.6-0.6,2.7-0.9,3.4-0.9c2.4,0,3.6,1.4,3.6,4.3c0,1.8-1,3.3-3,4.5s-4.7,1.7-8.2,1.7
		c-12.8,0-19.3-8.6-19.3-25.7c0-3.6,0.4-7.6,1.3-11.9c-0.8,0.1-2.7,0.5-5.5,1c-1.8,0.4-3.2,0.5-4.1,0.5c-3.2,0-4.9-1.2-4.9-3.7
		c0-3.4,5.6-5.6,16.8-6.6c2.3-7.3,5.1-10.9,8.4-10.9c1,0,1.9,0.4,2.6,1.1s1.1,1.6,1.1,2.7c0,0.8-0.2,1.8-0.7,3
		c-0.5,1.2-0.9,2.4-1.4,3.6C673.9,31.2,679.8,33.7,679.8,38.5z"/>
</g>
<g>
</g>
<g>
</g>
<g>
</g>
<g>
</g>
<g>
</g>
<g>
</g>
<g>
</g>
<g>
</g>
<g>
</g>
<g>
</g>
<g>
</g>
<g>
</g>
<g>
</g>
<g>
</g>
<g>
</g>
<g>
</g>
</svg>
